#!OML:ASF I:\Actors\actors\Patient Classification 1\Patient 1\Session 1\Subject1.ASF
:FULLY-SPECIFIED
:DEGREES
389
root -0.0411725 17.5507 8.84396 3.97044 33.9325 -8.58956
lowerback 3.20988 4.43777 5.30645
upperback -8.3572 6.45445 -1.04195
thorax -10.0083 2.71733 -4.79749
lowerneck -3.66326 -1.56083 -2.22356
upperneck 4.08489 -2.50728 13.0775
head 2.00855 -0.915398 4.2296
rclavicle 1.42131e-014 2.54444e-014
rhumerus -23.9204 19.8308 -100.568
rradius 131.97
rwrist 30.5061
rhand 30.6838 -44.771
rfingers 7.12502
rthumb 54.3206 -63.3899
lclavicle 1.42131e-014 2.54444e-014
lhumerus -23.6129 -25.6634 99.3574
lradius 138.848
lwrist -15.6342
lhand 44.0773 3.99971
lfingers 7.12502
lthumb 65.6764 10.0087
rfemur 1.75504 11.7383 29.9643
rtibia 7.69527
rfoot -27.5194 -42.4289
rtoes 21.5277
lfemur -8.79372 -38.4082 -4.9843
ltibia 0.854589
lfoot -1.69636 22.2507
ltoes -26.3505
390
root -0.0355123 17.5482 8.83443 3.85829 34.4766 -8.62107
lowerback 3.39356 4.39133 5.43506
upperback -8.07503 6.38734 -1.15221
thorax -9.78318 2.6818 -4.97795
lowerneck -3.59524 -1.98944 -2.75456
upperneck 2.35117 -2.88994 13.5908
head 1.53485 -1.17146 4.46319
rclavicle 4.31363e-014 2.46493e-014
rhumerus -27.7826 16.3868 -99.6189
rradius 128.629
rwrist 31.3521
rhand 35.6226 -48.3953
rfingers 7.12502
rthumb 58.6783 -63.4921
lclavicle 4.31363e-014 2.46493e-014
lhumerus -24.3968 -24.4905 99.3501
lradius 139.041
lwrist -15.0653
lhand 47.4195 5.71033
lfingers 7.12502
lthumb 68.1787 6.50709
rfemur 1.72148 11.4344 29.9747
rtibia 7.86305
rfoot -27.6677 -42.6372
rtoes 21.4929
lfemur -9.147 -38.094 -4.93308
ltibia 1.10646
lfoot -1.86645 21.3881
ltoes -26.2343
391
root -0.0307321 17.5444 8.82318 3.73219 35.1281 -8.53985
lowerback 3.55389 4.25626 5.36788
upperback -7.6947 6.18463 -1.17537
thorax -9.4798 2.60407 -4.93685
lowerneck -3.5807 -2.26849 -3.09851
upperneck 0.716216 -3.07445 13.8784
head 1.08123 -1.32446 4.60724
rclavicle -8.52786e-014 -3.18055e-014
rhumerus -31.6441 13.1024 -98.616
rradius 123.516
rwrist 32.2092
rhand 31.7174 -47.0461
rfingers 7.12502
rthumb 55.2439 -65.0069
lclavicle -8.52786e-014 -3.18055e-014
lhumerus -24.9897 -23.2603 99.1216
lradius 139.055
lwrist -15.1495
lhand 50.0294 6.89858
lfingers 7.12502
lthumb 69.9708 2.72649
rfemur 1.76129 11.2167 29.9312
rtibia 8.02235
rfoot -27.8508 -43.0596
rtoes 21.4942
lfemur -9.47564 -37.7846 -5.04557
ltibia 1.40401
lfoot -2.01325 20.3828
ltoes -26.2262
392
root -0.0273642 17.5369 8.80983 3.64131 35.7387 -8.4203
lowerback 3.7089 4.14434 5.28734
upperback -7.31174 6.01288 -1.19316
thorax -9.17028 2.54267 -4.88505
lowerneck -3.68797 -2.50969 -3.43093
upperneck -0.670705 -3.23016 14.1465
head 0.720091 -1.4469 4.74619
rclavicle -3.24516e-014 -3.89618e-014
rhumerus -35.326 9.72204 -97.5927
rradius 117.704
rwrist 32.2107
rhand 32.7698 -48.9233
rfingers 7.12502
rthumb 56.1784 -66.1739
lclavicle -3.24516e-014 -3.89618e-014
lhumerus -25.676 -22.2468 99.0562
lradius 138.952
lwrist -15.3129
lhand 50.8292 7.58024
lfingers 7.12502
lthumb 70.4848 1.70302
rfemur 1.74268 11.1742 29.8818
rtibia 8.27716
rfoot -28.2812 -43.5284
rtoes 21.9998
lfemur -9.77251 -37.5275 -5.20134
ltibia 1.68201
lfoot -2.14764 19.47
ltoes -26.2239
393
root -0.026462 17.5305 8.79425 3.48779 36.1905 -8.46089
lowerback 3.967 4.06455 5.31278
upperback -6.99927 5.90803 -1.16214
thorax -8.98978 2.50113 -4.86076
lowerneck -4.18021 -2.7051 -3.72557
upperneck -1.46926 -3.38848 14.3477
head 0.594543 -1.53276 4.85287
rclavicle -5.35228e-014 -2.94201e-014
rhumerus -38.3962 6.8384 -96.5473
rradius 110.49
rwrist 32.7146
rhand 33.0993 -49.8949
rfingers 7.12502
rthumb 56.4697 -66.9143
lclavicle -5.35228e-014 -2.94201e-014
lhumerus -26.5901 -21.3864 99.3491
lradius 138.863
lwrist -15.2958
lhand 50.868 7.61138
lfingers 7.12502
lthumb 70.5092 1.64908
rfemur 1.63995 11.2576 29.9806
rtibia 8.63848
rfoot -28.8239 -43.8968
rtoes 22.8853
lfemur -10.0081 -37.3262 -5.1792
ltibia 1.87821
lfoot -2.27898 18.8183
ltoes -26.1318
394
root -0.0250528 17.5277 8.77722 3.25628 36.461 -8.5945
lowerback 4.288 4.04053 5.4898
upperback -6.72615 5.89516 -1.16321
thorax -8.86354 2.49 -4.97113
lowerneck -4.98193 -2.87148 -3.91571
upperneck -1.74598 -3.56752 14.5001
head 0.672166 -1.59704 4.9195
rclavicle 3.89121e-014 1.82882e-014
rhumerus -40.6524 4.44967 -95.6123
rradius 102.516
rwrist 32.3164
rhand 35.2875 -53.0582
rfingers 7.12502
rthumb 58.3874 -68.4269
lclavicle 3.89121e-014 1.82882e-014
lhumerus -27.4456 -20.9425 99.7653
lradius 138.768
lwrist -15.2248
lhand 50.9515 7.41515
lfingers 7.12502
lthumb 70.5617 1.26908
rfemur 1.54062 11.2507 30.1225
rtibia 9.01949
rfoot -29.1773 -44.0792
rtoes 23.4787
lfemur -10.0972 -37.092 -5.12682
ltibia 1.99857
lfoot -2.31973 18.3077
ltoes -26.1741
395
root -0.01956 17.5266 8.75627 3.11007 36.596 -8.55546
lowerback 4.60147 4.05114 5.61187
upperback -6.47388 5.9213 -1.21639
thorax -8.75075 2.49953 -5.11088
lowerneck -5.77414 -3.01554 -3.9664
upperneck -1.85409 -3.7408 14.5043
head 0.790261 -1.65452 4.9156
rclavicle 9.95663e-014 2.38542e-014
rhumerus -42.2092 2.398 -94.9648
rradius 94.104
rwrist 33.1248
rhand 37.6789 -55.0245
rfingers 7.12502
rthumb 60.4448 -68.3292
lclavicle 9.95663e-014 2.38542e-014
lhumerus -27.9855 -20.9251 100.301
lradius 138.693
lwrist -15.2606
lhand 51.4518 7.64002
lfingers 7.12502
lthumb 70.8718 0.371572
rfemur 1.4678 11.0134 30.0279
rtibia 9.35761
rfoot -29.3063 -44.033
rtoes 23.9961
lfemur -10.1033 -36.8562 -5.33361
ltibia 2.17893
lfoot -2.29823 17.8813
ltoes -26.4196
